<?xml version="1.0" encoding="UTF-8"?>
<svg id="Layer_1" data-name="Layer 1" xmlns="http://www.w3.org/2000/svg" viewBox="0 0 1080 1080">
  <defs>
    <style>
      .cls-1 {
        fill: #010101;
      }
    </style>
  </defs>
  <g id="_358_cloud_syncing_sync_data_synchronization" data-name="358, cloud, syncing, sync, data, synchronization">
    <g>
      <path style="fill:#0076c8" class="cls-1" d="M921.62,774.07h-263.4c-3.59,0-5.38-1.78-5.38-3.55s0-5.31,1.79-7.09c25.09-24.79,39.42-58.45,39.42-92.11,0-70.85-59.13-129.3-130.81-129.3s-130.8,58.45-130.8,129.3c0,35.43,14.33,67.32,39.42,92.11,1.79,1.78,1.79,5.31,1.79,7.09-1.79,1.76-3.59,3.55-5.38,3.55H201.3c-75.26,0-136.19-60.23-136.19-134.63s57.34-131.07,129.02-134.61v-14.17c0-72.63,59.13-132.85,132.6-134.63,12.54-62,68.08-108.04,132.59-108.04,23.3,0,44.8,5.31,66.3,15.93,30.46-42.5,78.84-67.31,130.81-67.31,87.8,0,157.68,70.85,157.68,155.87v14.18c16.12-5.33,32.25-7.09,50.17-7.09,87.8,0,157.68,70.85,157.68,155.87,0,10.64-1.79,19.5-3.59,30.12,25.09,24.81,37.63,58.45,37.63,93.88,3.59,74.4-59.13,134.63-134.39,134.63ZM674.34,761.67h247.28c68.09,0,123.64-54.92,123.64-122.23,0-33.64-12.54-63.76-37.62-86.78-1.8-1.78-1.8-3.55-1.8-5.33,1.8-10.62,3.59-19.48,3.59-30.1,0-79.71-64.51-143.49-145.14-143.49-19.71,0-37.63,3.55-55.55,10.64-1.79,1.76-5.37,0-7.16-1.78-1.8-1.76-3.59-3.55-1.8-7.07,1.8-7.09,1.8-15.95,1.8-23.04,0-79.71-64.51-143.47-145.14-143.47-50.17,0-96.76,24.81-123.64,67.31-1.8,3.55-5.38,3.55-8.96,1.78-19.71-12.4-41.21-17.71-64.51-17.71-60.92,0-111.09,42.5-121.84,100.95,0,3.55-3.59,5.33-7.17,5.33h-1.79c-68.09,0-123.64,54.9-123.64,122.21,0,7.09,0,14.17,1.79,19.5,0,1.76,0,3.53-1.79,5.31,1.79,3.55,0,5.31-1.79,5.31h-1.79c-66.3,0-121.85,53.14-121.85,120.45s55.54,122.23,123.64,122.23h249.06c-21.5-24.81-32.25-56.69-32.25-90.35,0-79.71,64.5-143.47,145.14-143.47s145.14,63.76,145.14,143.47c-3.59,33.66-14.34,65.54-35.84,90.35Z"/>
      <path class="cls-1" d="M86.62,706.75h-3.58c-43-24.79-69.88-69.07-69.88-116.9,0-72.62,57.34-131.08,129.02-134.61v-14.18c0-72.62,59.13-132.85,132.6-134.61,12.54-62,68.08-108.04,132.59-108.04,23.3,0,44.8,5.31,66.3,15.93,30.46-42.5,78.84-67.31,130.8-67.31,55.55,0,107.52,30.12,136.19,77.94,1.79,1.76,1.79,5.31-1.8,8.86-1.79,1.76-5.37,1.76-8.95,0-23.3-14.18-50.17-21.26-77.05-21.26-50.17,0-96.76,24.79-123.64,67.31-1.79,3.55-5.37,3.55-8.96,1.76-19.71-12.39-41.21-17.71-64.5-17.71-60.92,0-111.1,42.52-121.85,100.97,0,3.55-3.58,5.31-7.16,5.31h-1.8c-68.08,0-123.63,54.92-123.63,122.23,0,7.09,0,14.17,1.79,19.48,0,1.78,0,3.55-1.79,5.33,5.37,0,3.58,1.76,1.79,1.76h-1.79c-66.3,0-121.85,53.14-121.85,120.45,0,19.5,5.37,38.97,14.33,56.69,1.79,1.76,1.79,5.31-1.79,7.09-1.79,3.53-3.59,3.53-5.38,3.53ZM151.13,467.62c-68.09,0-123.64,54.92-123.64,122.23,0,35.43,16.12,70.85,43,92.11-3.59-14.17-7.17-28.35-7.17-40.74,0-72.63,57.34-131.08,129.02-134.63v-14.17c0-72.62,59.12-132.85,132.59-134.61,12.55-62,68.09-108.06,132.6-108.06,23.29,0,44.8,5.31,66.3,15.95,30.46-42.52,78.84-67.31,130.8-67.31,19.71,0,39.42,3.53,59.13,10.62-26.88-30.12-66.29-49.59-109.31-49.59-50.16,0-96.76,24.79-123.64,67.31-1.79,3.55-5.37,3.55-8.95,1.76-19.71-12.39-41.21-17.71-64.51-17.71-60.92,0-111.09,42.52-121.84,100.97,0,3.55-3.59,5.31-7.17,5.31h-1.79c-68.09,0-123.64,54.92-123.64,122.23,0,7.09,0,14.17,1.79,19.48,0,1.78,0,3.55-1.79,5.33,3.58,1.76,1.79,3.53-1.79,3.53h0Z"/>
      <path class="cls-1" d="M728.1,850.24H179.79c-3.58,0-7.16-3.55-7.16-7.09s3.58-7.07,7.16-7.07h548.3c3.59,0,7.17,3.53,7.17,7.07s-3.58,7.09-7.17,7.09Z"/>
      <path class="cls-1" d="M880.41,875.02h-379.87c-3.58,0-7.16-3.53-7.16-7.07s3.58-7.09,7.16-7.09h378.08c3.58,0,7.17,3.55,7.17,7.09,1.79,5.31-1.79,7.07-5.38,7.07Z"/>
      <path class="cls-1" d="M966.41,875.02h-46.58c-3.58,0-7.17-3.53-7.17-7.07s3.59-7.09,7.17-7.09h46.58c3.59,0,7.17,3.55,7.17,7.09,0,5.31-3.58,7.07-7.17,7.07Z"/>
      <path class="cls-1" d="M339.27,875.02h-179.19c-3.58,0-7.16-3.53-7.16-7.07s3.58-7.09,7.16-7.09h179.19c3.58,0,7.16,3.55,7.16,7.09-1.79,3.55-3.58,7.07-7.16,7.07Z"/>
      <path class="cls-1" d="M561.46,813.03c-80.63,0-145.14-63.76-145.14-143.47s64.5-143.47,145.14-143.47,145.14,63.76,145.14,143.47-64.5,143.47-145.14,143.47ZM561.46,540.25c-71.67,0-130.8,58.45-130.8,129.3s59.12,129.3,130.8,129.3,130.81-58.45,130.81-129.3c1.79-70.85-57.34-129.3-130.81-129.3Z"/>
      <path class="cls-1" d="M561.46,774.07c-57.33,0-103.93-46.06-103.93-102.75,0-3.53,3.59-7.07,7.17-7.07s7.17,3.55,7.17,7.07c0,49.61,41.21,90.35,91.38,90.35,3.59,0,7.17,3.55,7.17,7.07-1.79,1.78-5.37,5.33-8.96,5.33Z"/>
      <path class="cls-1" d="M660.01,676.65c-3.58,0-7.17-3.55-7.17-7.09,0-49.59-41.21-90.33-91.39-90.33-3.58,0-7.16-3.55-7.16-7.09s3.58-7.09,7.16-7.09c57.34,0,103.93,46.06,103.93,102.75,1.8,7.07-1.79,8.86-5.37,8.86Z"/>
      <path class="cls-1" d="M660.01,676.65h-3.58l-26.88-14.18c-3.58-1.76-5.38-5.31-3.58-8.86,1.79-3.53,5.37-5.31,8.95-3.53l21.51,10.62,16.12-17.71c1.79-3.55,7.17-3.55,8.96,0,3.58,1.76,3.58,7.09,0,8.86l-19.71,21.26c1.79,3.55,0,3.55-1.79,3.55Z"/>
      <path class="cls-1" d="M444.99,699.67c-1.79,0-3.58,0-5.37-1.78-3.59-1.76-3.59-7.07,0-8.86l19.7-21.24c1.8-1.78,5.38-3.55,8.96-1.78l26.88,14.17c3.58,1.78,5.37,5.33,3.58,8.86-1.79,3.55-5.37,5.33-8.96,3.55l-23.29-14.17-16.13,17.71c-1.79,1.76-3.58,3.55-5.37,3.55Z"/>
    </g>
  </g>
</svg>
